<mxfile>
    <diagram id="J-_m5Dz8kAoytyPUdoGa" name="Page-1">
        <mxGraphModel dx="1060" dy="614" grid="1" gridSize="10" guides="1" tooltips="1" connect="1" arrows="1" fold="1" page="1" pageScale="1" pageWidth="850" pageHeight="1100" math="0" shadow="0">
            <root>
                <mxCell id="0"/>
                <mxCell id="1" parent="0"/>
                <UserObject label="The hospital makes it's money by servicing to patients. Each patient has these atts" lucidchartObjectId="cF-EM.KjoYx8" id="2">
                    <mxCell style="html=1;overflow=block;blockSpacing=1;whiteSpace=wrap;;whiteSpace=wrap;fontSize=13;fontColor=#333333;spacing=7;strokeColor=#5e5e5e;strokeOpacity=100;rounded=1;absoluteArcSize=1;arcSize=7;strokeWidth=2;fillColor=#FFFFFF;" parent="1" vertex="1">
                        <mxGeometry x="96" y="708" width="96" height="192" as="geometry"/>
                    </mxCell>
                </UserObject>
                <UserObject label="Patient" lucidchartObjectId="9G-EVLmSbwV7" id="3">
                    <mxCell style="html=1;overflow=block;blockSpacing=1;whiteSpace=wrap;;whiteSpace=wrap;fontSize=13;fontColor=#333333;spacing=7;strokeColor=#5e5e5e;strokeOpacity=100;fillOpacity=100;rounded=1;absoluteArcSize=1;arcSize=7;fillColor=#cccccc;strokeWidth=2;" parent="1" vertex="1">
                        <mxGeometry x="220" y="505" width="79" height="43" as="geometry"/>
                    </mxCell>
                </UserObject>
                <UserObject label="Nurse" lucidchartObjectId="mH-Euvo3D96O" id="4">
                    <mxCell style="html=1;overflow=block;blockSpacing=1;whiteSpace=wrap;;whiteSpace=wrap;fontSize=13;fontColor=#333333;spacing=7;strokeColor=#5e5e5e;strokeOpacity=100;fillOpacity=100;rounded=1;absoluteArcSize=1;arcSize=7;fillColor=#cccccc;strokeWidth=2;" parent="1" vertex="1">
                        <mxGeometry x="789" y="210" width="79" height="43" as="geometry"/>
                    </mxCell>
                </UserObject>
                <UserObject label="Doctor" lucidchartObjectId="nH-ERL_46Sf9" id="5">
                    <mxCell style="html=1;overflow=block;blockSpacing=1;whiteSpace=wrap;;whiteSpace=wrap;fontSize=13;fontColor=#333333;spacing=7;strokeColor=#5e5e5e;strokeOpacity=100;fillOpacity=100;rounded=1;absoluteArcSize=1;arcSize=7;fillColor=#cccccc;strokeWidth=2;" parent="1" vertex="1">
                        <mxGeometry x="326" y="207" width="79" height="43" as="geometry"/>
                    </mxCell>
                </UserObject>
                <UserObject label="p_name" lucidchartObjectId="AH-Ew~Vkp.jI" id="6">
                    <mxCell style="html=1;overflow=block;blockSpacing=1;whiteSpace=wrap;rounded=1;arcSize=50;whiteSpace=wrap;fontSize=13;fontColor=#333333;spacing=3;strokeColor=#5e5e5e;strokeOpacity=100;fillOpacity=100;fillColor=#b2d6ef;strokeWidth=2;" parent="1" vertex="1">
                        <mxGeometry x="96" y="478" width="79" height="22" as="geometry"/>
                    </mxCell>
                </UserObject>
                <UserObject label="p_id" lucidchartObjectId="XH-EF.4G-NDv" id="7">
                    <mxCell style="html=1;overflow=block;blockSpacing=1;whiteSpace=wrap;rounded=1;arcSize=50;whiteSpace=wrap;fontSize=13;fontColor=#333333;fontStyle=4;spacing=3;strokeColor=#5e5e5e;strokeOpacity=100;fillOpacity=100;fillColor=#ffc374;strokeWidth=2;" parent="1" vertex="1">
                        <mxGeometry x="145" y="448" width="79" height="22" as="geometry"/>
                    </mxCell>
                </UserObject>
                <mxCell id="74" style="edgeStyle=orthogonalEdgeStyle;rounded=0;orthogonalLoop=1;jettySize=auto;html=1;entryX=0;entryY=0.5;entryDx=0;entryDy=0;strokeColor=#FFFFFF;fillColor=#FFFFFF;" parent="1" source="8" target="3" edge="1">
                    <mxGeometry relative="1" as="geometry"/>
                </mxCell>
                <UserObject label="&lt;font color=&quot;#000000&quot;&gt;p_dob&lt;/font&gt;" lucidchartObjectId="YH-E5QpCx4~W" id="8">
                    <mxCell style="html=1;overflow=block;blockSpacing=1;whiteSpace=wrap;rounded=1;arcSize=50;whiteSpace=wrap;fontSize=11;spacing=3;strokeColor=#5e5e5e;strokeOpacity=100;fillOpacity=100;fillColor=#b2d6ef;strokeWidth=2;" parent="1" vertex="1">
                        <mxGeometry x="66" y="515.5" width="79" height="22" as="geometry"/>
                    </mxCell>
                </UserObject>
                <UserObject label="p_sex" lucidchartObjectId="YH-EcvkvTAb-" id="9">
                    <mxCell style="html=1;overflow=block;blockSpacing=1;whiteSpace=wrap;rounded=1;arcSize=50;whiteSpace=wrap;fontSize=13;fontColor=#333333;spacing=3;strokeColor=#5e5e5e;strokeOpacity=100;fillOpacity=100;fillColor=#b2d6ef;strokeWidth=2;" parent="1" vertex="1">
                        <mxGeometry x="96" y="554" width="79" height="22" as="geometry"/>
                    </mxCell>
                </UserObject>
                <UserObject label="p_ill" lucidchartObjectId="YH-E.tEkGaVD" id="10">
                    <mxCell style="html=1;overflow=block;blockSpacing=1;whiteSpace=wrap;rounded=1;arcSize=50;whiteSpace=wrap;fontSize=13;fontColor=#333333;spacing=3;strokeColor=#5e5e5e;strokeOpacity=100;fillOpacity=100;fillColor=#b2d6ef;strokeWidth=2;" parent="1" vertex="1">
                        <mxGeometry x="208" y="640" width="79" height="22" as="geometry"/>
                    </mxCell>
                </UserObject>
                <UserObject label="p_address" lucidchartObjectId="YH-Ec_2495Ja" id="11">
                    <mxCell style="html=1;overflow=block;blockSpacing=1;whiteSpace=wrap;rounded=1;arcSize=50;whiteSpace=wrap;fontSize=13;fontColor=#333333;spacing=3;strokeColor=#5e5e5e;strokeOpacity=100;fillOpacity=100;fillColor=#b2d6ef;strokeWidth=2;" parent="1" vertex="1">
                        <mxGeometry x="141" y="591" width="79" height="22" as="geometry"/>
                    </mxCell>
                </UserObject>
                <UserObject label="The foundation of the hospital is it's employees including doctors and nurses have these atts" lucidchartObjectId="xL-EhIH0hhWG" id="12">
                    <mxCell style="html=1;overflow=block;blockSpacing=1;whiteSpace=wrap;;whiteSpace=wrap;fontSize=13;fontColor=#333333;spacing=7;strokeColor=#5e5e5e;strokeOpacity=100;rounded=1;absoluteArcSize=1;arcSize=7;strokeWidth=2;fillColor=#FFFFFF;" parent="1" vertex="1">
                        <mxGeometry x="240" y="708" width="96" height="192" as="geometry"/>
                    </mxCell>
                </UserObject>
                <mxCell id="75" style="edgeStyle=orthogonalEdgeStyle;rounded=0;orthogonalLoop=1;jettySize=auto;html=1;exitX=1;exitY=0.5;exitDx=0;exitDy=0;entryX=0.142;entryY=-0.005;entryDx=0;entryDy=0;entryPerimeter=0;strokeColor=#FFFFFF;fillColor=#FFFFFF;" parent="1" source="13" target="5" edge="1">
                    <mxGeometry relative="1" as="geometry"/>
                </mxCell>
                <UserObject label="doc_name" lucidchartObjectId="eN-EjGiqYkRQ" id="13">
                    <mxCell style="html=1;overflow=block;blockSpacing=1;whiteSpace=wrap;rounded=1;arcSize=50;whiteSpace=wrap;fontSize=13;fontColor=#333333;spacing=3;strokeColor=#5e5e5e;strokeOpacity=100;fillOpacity=100;fillColor=#b2d6ef;strokeWidth=2;" parent="1" vertex="1">
                        <mxGeometry x="236" y="131" width="79" height="22" as="geometry"/>
                    </mxCell>
                </UserObject>
                <UserObject label="doc_age" lucidchartObjectId="hN-E4G3-MLpm" id="14">
                    <mxCell style="html=1;overflow=block;blockSpacing=1;whiteSpace=wrap;rounded=1;arcSize=50;whiteSpace=wrap;fontSize=13;fontColor=#333333;spacing=3;strokeColor=#5e5e5e;strokeOpacity=100;fillOpacity=100;fillColor=#a3d977;strokeWidth=2;" parent="1" vertex="1">
                        <mxGeometry x="394" y="128" width="79" height="22" as="geometry"/>
                    </mxCell>
                </UserObject>
                <UserObject label="doc_sex" lucidchartObjectId="jN-EXN_1yEE1" id="15">
                    <mxCell style="html=1;overflow=block;blockSpacing=1;whiteSpace=wrap;rounded=1;arcSize=50;whiteSpace=wrap;fontSize=13;fontColor=#333333;spacing=3;strokeColor=#5e5e5e;strokeOpacity=100;fillOpacity=100;fillColor=#b2d6ef;strokeWidth=2;" parent="1" vertex="1">
                        <mxGeometry x="191" y="220" width="79" height="22" as="geometry"/>
                    </mxCell>
                </UserObject>
                <UserObject label="doc_id" lucidchartObjectId="pN-EyqVWM8pQ" id="16">
                    <mxCell style="html=1;overflow=block;blockSpacing=1;whiteSpace=wrap;rounded=1;arcSize=50;whiteSpace=wrap;fontSize=13;fontColor=#333333;fontStyle=4;spacing=3;strokeColor=#5e5e5e;strokeOpacity=100;fillOpacity=100;fillColor=#ffc374;strokeWidth=2;" parent="1" vertex="1">
                        <mxGeometry x="311" y="96" width="79" height="22" as="geometry"/>
                    </mxCell>
                </UserObject>
                <UserObject label="doc_major" lucidchartObjectId="UN-EWSv6AT1v" id="17">
                    <mxCell style="html=1;overflow=block;blockSpacing=1;whiteSpace=wrap;rounded=1;arcSize=50;whiteSpace=wrap;fontSize=13;fontColor=#333333;spacing=3;strokeColor=#5e5e5e;strokeOpacity=100;fillOpacity=100;fillColor=#b2d6ef;strokeWidth=2;" parent="1" vertex="1">
                        <mxGeometry x="208" y="266" width="79" height="22" as="geometry"/>
                    </mxCell>
                </UserObject>
                <UserObject label="doc_dob" lucidchartObjectId="FO-EUZdBC24~" id="18">
                    <mxCell style="html=1;overflow=block;blockSpacing=1;whiteSpace=wrap;rounded=1;arcSize=50;whiteSpace=wrap;fontSize=13;fontColor=#333333;spacing=3;strokeColor=#5e5e5e;strokeOpacity=100;fillOpacity=100;fillColor=#b2d6ef;strokeWidth=2;" parent="1" vertex="1">
                        <mxGeometry x="208" y="174" width="79" height="22" as="geometry"/>
                    </mxCell>
                </UserObject>
                <UserObject label="nur_id" lucidchartObjectId="hm_EOuwM3QHX" id="19">
                    <mxCell style="html=1;overflow=block;blockSpacing=1;whiteSpace=wrap;rounded=1;arcSize=50;whiteSpace=wrap;fontSize=13;fontColor=#333333;fontStyle=4;spacing=3;strokeColor=#5e5e5e;strokeOpacity=100;fillOpacity=100;fillColor=#ffc374;strokeWidth=2;" parent="1" vertex="1">
                        <mxGeometry x="789" y="74" width="79" height="22" as="geometry"/>
                    </mxCell>
                </UserObject>
                <UserObject label="doc_name" lucidchartObjectId="qm_EHY~PuI0E" id="20">
                    <mxCell style="html=1;overflow=block;blockSpacing=1;whiteSpace=wrap;rounded=1;arcSize=50;whiteSpace=wrap;fontSize=13;fontColor=#333333;spacing=3;strokeColor=#5e5e5e;strokeOpacity=100;fillOpacity=100;fillColor=#b2d6ef;strokeWidth=2;" parent="1" vertex="1">
                        <mxGeometry x="981" y="147" width="79" height="22" as="geometry"/>
                    </mxCell>
                </UserObject>
                <mxCell id="102" style="edgeStyle=orthogonalEdgeStyle;rounded=0;orthogonalLoop=1;jettySize=auto;html=1;" parent="1" source="21" target="3" edge="1">
                    <mxGeometry relative="1" as="geometry">
                        <mxPoint x="260" y="550" as="targetPoint"/>
                    </mxGeometry>
                </mxCell>
                <UserObject label="pat_age" lucidchartObjectId="Jm_Emg_fmuuJ" id="21">
                    <mxCell style="html=1;overflow=block;blockSpacing=1;whiteSpace=wrap;rounded=1;arcSize=50;whiteSpace=wrap;fontSize=13;fontColor=#333333;spacing=3;strokeColor=#5e5e5e;strokeOpacity=100;fillOpacity=100;fillColor=#a3d977;strokeWidth=2;" parent="1" vertex="1">
                        <mxGeometry x="280" y="613" width="79" height="22" as="geometry"/>
                    </mxCell>
                </UserObject>
                <mxCell id="86" style="edgeStyle=orthogonalEdgeStyle;rounded=0;orthogonalLoop=1;jettySize=auto;html=1;entryX=1;entryY=0.25;entryDx=0;entryDy=0;strokeColor=#FFFFFF;fillColor=#FFFFFF;" parent="1" source="22" target="4" edge="1">
                    <mxGeometry relative="1" as="geometry">
                        <Array as="points">
                            <mxPoint x="900" y="196"/>
                            <mxPoint x="900" y="221"/>
                        </Array>
                    </mxGeometry>
                </mxCell>
                <UserObject label="nur_dob" lucidchartObjectId="rn_EwQ2x1xgz" id="22">
                    <mxCell style="html=1;overflow=block;blockSpacing=1;whiteSpace=wrap;rounded=1;arcSize=50;whiteSpace=wrap;fontSize=13;fontColor=#333333;spacing=3;strokeColor=#5e5e5e;strokeOpacity=100;fillOpacity=100;fillColor=#b2d6ef;strokeWidth=2;" parent="1" vertex="1">
                        <mxGeometry x="981" y="185" width="79" height="22" as="geometry"/>
                    </mxCell>
                </UserObject>
                <mxCell id="137" style="edgeStyle=orthogonalEdgeStyle;rounded=0;orthogonalLoop=1;jettySize=auto;html=1;entryX=1;entryY=0.5;entryDx=0;entryDy=0;" parent="1" source="23" target="4" edge="1">
                    <mxGeometry relative="1" as="geometry"/>
                </mxCell>
                <UserObject label="nur_sex" lucidchartObjectId="Gn_EeRe1m0DJ" id="23">
                    <mxCell style="html=1;overflow=block;blockSpacing=1;whiteSpace=wrap;rounded=1;arcSize=50;whiteSpace=wrap;fontSize=13;fontColor=#333333;spacing=3;strokeColor=#5e5e5e;strokeOpacity=100;fillOpacity=100;fillColor=#b2d6ef;strokeWidth=2;" parent="1" vertex="1">
                        <mxGeometry x="1009" y="220.5" width="78" height="22" as="geometry"/>
                    </mxCell>
                </UserObject>
                <UserObject label="" lucidchartObjectId="Yn_ElNHWjXYY" id="24">
                    <mxCell style="html=1;jettySize=18;whiteSpace=wrap;fontSize=11;strokeColor=#FFFFFF;rounded=1;arcSize=12;edgeStyle=orthogonalEdgeStyle;startArrow=none;;endArrow=block;endFill=1;;exitX=0.5;exitY=1.042;exitPerimeter=0;entryX=0.312;entryY=-0.021;entryPerimeter=0;" parent="1" source="16" target="5" edge="1">
                        <mxGeometry width="100" height="100" relative="1" as="geometry">
                            <Array as="points"/>
                        </mxGeometry>
                    </mxCell>
                </UserObject>
                <UserObject label="" lucidchartObjectId="8n_E6q6M8WWj" id="26">
                    <mxCell style="html=1;jettySize=18;whiteSpace=wrap;fontSize=11;strokeColor=#FFFFFF;rounded=1;arcSize=12;edgeStyle=orthogonalEdgeStyle;startArrow=none;;endArrow=block;endFill=1;;exitX=1.011;exitY=0.5;exitPerimeter=0;entryX=-0.011;entryY=0.5;entryPerimeter=0;" parent="1" source="18" target="5" edge="1">
                        <mxGeometry width="100" height="100" relative="1" as="geometry">
                            <Array as="points"/>
                        </mxGeometry>
                    </mxCell>
                </UserObject>
                <UserObject label="" lucidchartObjectId=".n_E3..jnu0-" id="27">
                    <mxCell style="html=1;jettySize=18;whiteSpace=wrap;fontSize=11;strokeColor=#FFFFFF;rounded=1;arcSize=12;edgeStyle=orthogonalEdgeStyle;startArrow=none;;endArrow=block;endFill=1;;exitX=1.011;exitY=0.5;exitPerimeter=0;entryX=0.078;entryY=1.021;entryPerimeter=0;fillColor=#FFFFFF;" parent="1" source="17" target="5" edge="1">
                        <mxGeometry width="100" height="100" relative="1" as="geometry">
                            <Array as="points">
                                <mxPoint x="332" y="277"/>
                            </Array>
                        </mxGeometry>
                    </mxCell>
                </UserObject>
                <UserObject label="" lucidchartObjectId="eo_EkfTMMWcJ" id="28">
                    <mxCell style="html=1;jettySize=18;whiteSpace=wrap;fontSize=11;strokeColor=#FFFFFF;rounded=1;arcSize=12;edgeStyle=orthogonalEdgeStyle;startArrow=none;;endArrow=block;endFill=1;;exitX=0.5;exitY=1.042;exitPerimeter=0;" parent="1" source="19" edge="1">
                        <mxGeometry width="100" height="100" relative="1" as="geometry">
                            <Array as="points"/>
                            <mxPoint x="829" y="209" as="targetPoint"/>
                        </mxGeometry>
                    </mxCell>
                </UserObject>
                <UserObject label="" lucidchartObjectId="go_ErhfskepN" id="29">
                    <mxCell style="html=1;jettySize=18;whiteSpace=wrap;fontSize=11;strokeColor=#FFFFFF;rounded=1;arcSize=12;edgeStyle=orthogonalEdgeStyle;startArrow=none;;endArrow=block;endFill=1;;exitX=-0.011;exitY=0.5;exitPerimeter=0;entryX=0.995;entryY=0.015;entryPerimeter=0;" parent="1" source="20" target="4" edge="1">
                        <mxGeometry width="100" height="100" relative="1" as="geometry">
                            <Array as="points"/>
                        </mxGeometry>
                    </mxCell>
                </UserObject>
                <UserObject label="Bed" lucidchartObjectId="oo_Eic0omiU4" id="32">
                    <mxCell style="html=1;overflow=block;blockSpacing=1;whiteSpace=wrap;;whiteSpace=wrap;fontSize=13;fontColor=#333333;spacing=7;strokeColor=#5e5e5e;strokeOpacity=100;fillOpacity=100;rounded=1;absoluteArcSize=1;arcSize=7;fillColor=#cccccc;strokeWidth=2;" parent="1" vertex="1">
                        <mxGeometry x="670" y="438" width="79" height="43" as="geometry"/>
                    </mxCell>
                </UserObject>
                <UserObject label="Room" lucidchartObjectId="po_EuN1aKs1K" id="33">
                    <mxCell style="html=1;overflow=block;blockSpacing=1;whiteSpace=wrap;;whiteSpace=wrap;fontSize=13;fontColor=#333333;spacing=7;strokeColor=#5e5e5e;strokeOpacity=100;fillOpacity=100;rounded=1;absoluteArcSize=1;arcSize=7;fillColor=#cccccc;strokeWidth=2;" parent="1" vertex="1">
                        <mxGeometry x="950" y="391.5" width="79" height="43" as="geometry"/>
                    </mxCell>
                </UserObject>
                <UserObject label="" lucidchartObjectId="Sq_E_RvQFYMp" id="34">
                    <mxCell style="html=1;jettySize=18;whiteSpace=wrap;fontSize=11;strokeColor=#FFFFFF;rounded=1;arcSize=12;edgeStyle=orthogonalEdgeStyle;startArrow=none;;endArrow=block;endFill=1;;exitX=1.011;exitY=0.5;exitPerimeter=0;entryX=0.241;entryY=-0.021;entryPerimeter=0;fillColor=#FFFFFF;" parent="1" source="7" target="3" edge="1">
                        <mxGeometry width="100" height="100" relative="1" as="geometry">
                            <Array as="points">
                                <mxPoint x="239" y="461"/>
                            </Array>
                        </mxGeometry>
                    </mxCell>
                </UserObject>
                <UserObject label="" lucidchartObjectId="Vq_EptQBkHMO" id="35">
                    <mxCell style="html=1;jettySize=18;whiteSpace=wrap;fontSize=11;strokeColor=#FFFFFF;rounded=1;arcSize=12;edgeStyle=orthogonalEdgeStyle;startArrow=none;;endArrow=block;endFill=1;;exitX=1.011;exitY=0.5;exitPerimeter=0;entryX=-0.011;entryY=0.114;entryPerimeter=0;fillColor=#FFFFFF;" parent="1" source="6" target="3" edge="1">
                        <mxGeometry width="100" height="100" relative="1" as="geometry">
                            <Array as="points"/>
                        </mxGeometry>
                    </mxCell>
                </UserObject>
                <UserObject label="" lucidchartObjectId="Xq_EKUTK~KGQ" id="37">
                    <mxCell style="html=1;jettySize=18;whiteSpace=wrap;fontSize=11;strokeColor=#FFFFFF;rounded=1;arcSize=12;edgeStyle=orthogonalEdgeStyle;startArrow=none;;endArrow=block;endFill=1;;exitX=1.011;exitY=0.5;exitPerimeter=0;entryX=-0.011;entryY=0.882;entryPerimeter=0;" parent="1" source="9" target="3" edge="1">
                        <mxGeometry width="100" height="100" relative="1" as="geometry">
                            <Array as="points"/>
                        </mxGeometry>
                    </mxCell>
                </UserObject>
                <UserObject label="" lucidchartObjectId="Yq_E1ME2jWta" id="38">
                    <mxCell style="html=1;jettySize=18;whiteSpace=wrap;fontSize=11;strokeColor=#FFFFFF;rounded=1;arcSize=12;edgeStyle=orthogonalEdgeStyle;startArrow=none;;endArrow=block;endFill=1;;exitX=1.011;exitY=0.5;exitPerimeter=0;entryX=0.203;entryY=1.021;entryPerimeter=0;" parent="1" source="11" target="3" edge="1">
                        <mxGeometry width="100" height="100" relative="1" as="geometry">
                            <Array as="points">
                                <mxPoint x="236" y="602"/>
                            </Array>
                        </mxGeometry>
                    </mxCell>
                </UserObject>
                <UserObject label="" lucidchartObjectId="1q_ETUQSSDKe" id="39">
                    <mxCell style="html=1;jettySize=18;whiteSpace=wrap;fontSize=11;strokeColor=#FFFFFF;rounded=1;arcSize=12;edgeStyle=orthogonalEdgeStyle;startArrow=none;;endArrow=block;endFill=1;;exitX=0.5;exitY=-0.042;exitPerimeter=0;" parent="1" source="10" edge="1">
                        <mxGeometry width="100" height="100" relative="1" as="geometry">
                            <Array as="points">
                                <mxPoint x="248" y="549"/>
                            </Array>
                            <mxPoint x="248" y="549" as="targetPoint"/>
                        </mxGeometry>
                    </mxCell>
                </UserObject>
                <UserObject label="" lucidchartObjectId="kr_ElnlELBot" id="41">
                    <mxCell style="html=1;jettySize=18;whiteSpace=wrap;fontSize=11;strokeColor=#FFFFFF;rounded=1;arcSize=12;edgeStyle=orthogonalEdgeStyle;startArrow=none;;endArrow=block;endFill=1;;exitX=1.011;exitY=0.5;exitPerimeter=0;entryX=-0.011;entryY=0.837;entryPerimeter=0;" parent="1" source="15" target="5" edge="1">
                        <mxGeometry width="100" height="100" relative="1" as="geometry">
                            <Array as="points"/>
                        </mxGeometry>
                    </mxCell>
                </UserObject>
                <UserObject label="Services" lucidchartObjectId="Fr_EEblqOVs3" id="43">
                    <mxCell style="html=1;overflow=block;blockSpacing=1;whiteSpace=wrap;rhombus;whiteSpace=wrap;fontSize=13;fontColor=#333333;spacing=3;strokeColor=#5e5e5e;strokeOpacity=100;rounded=1;absoluteArcSize=1;arcSize=7;strokeWidth=2;fillColor=#FFFFFF;" parent="1" vertex="1">
                        <mxGeometry x="315" y="343" width="90" height="65" as="geometry"/>
                    </mxCell>
                </UserObject>
                <UserObject label="Uses" lucidchartObjectId="zs_EMsfJdpE6" id="45">
                    <mxCell style="html=1;overflow=block;blockSpacing=1;whiteSpace=wrap;rhombus;whiteSpace=wrap;fontSize=13;fontColor=#333333;spacing=3;strokeColor=#5e5e5e;strokeOpacity=100;rounded=1;absoluteArcSize=1;arcSize=7;strokeWidth=2;fillColor=#FFFFFF;" parent="1" vertex="1">
                        <mxGeometry x="520" y="426.5" width="90" height="65" as="geometry"/>
                    </mxCell>
                </UserObject>
                <UserObject label="" lucidchartObjectId="rt_EFf.KEjvL" id="47">
                    <mxCell style="html=1;jettySize=18;whiteSpace=wrap;fontSize=11;strokeColor=#FFFFFF;rounded=1;arcSize=12;edgeStyle=orthogonalEdgeStyle;startArrow=none;;endArrow=block;endFill=1;;exitX=-0.011;exitY=0.5;exitPerimeter=0;entryX=0.662;entryY=-0.021;entryPerimeter=0;" parent="1" source="14" target="5" edge="1">
                        <mxGeometry width="100" height="100" relative="1" as="geometry">
                            <Array as="points">
                                <mxPoint x="378" y="139"/>
                            </Array>
                        </mxGeometry>
                    </mxCell>
                </UserObject>
                <UserObject label="Suported" lucidchartObjectId="6u_ERfxNe~Ca" id="48">
                    <mxCell style="html=1;overflow=block;blockSpacing=1;whiteSpace=wrap;rhombus;whiteSpace=wrap;fontSize=13;fontColor=#333333;spacing=3;strokeColor=#5e5e5e;strokeOpacity=100;rounded=1;absoluteArcSize=1;arcSize=7;strokeWidth=2;fillColor=#FFFFFF;" parent="1" vertex="1">
                        <mxGeometry x="541" y="174" width="90" height="65" as="geometry"/>
                    </mxCell>
                </UserObject>
                <UserObject label="Services" lucidchartObjectId="xv_Et67sgabx" id="51">
                    <mxCell style="html=1;overflow=block;blockSpacing=1;whiteSpace=wrap;rhombus;whiteSpace=wrap;fontSize=13;fontColor=#333333;spacing=3;strokeColor=#5e5e5e;strokeOpacity=100;rounded=1;absoluteArcSize=1;arcSize=7;strokeWidth=2;fillColor=#FFFFFF;" parent="1" vertex="1">
                        <mxGeometry x="529" y="312" width="90" height="65" as="geometry"/>
                    </mxCell>
                </UserObject>
                <UserObject label="Belong to" lucidchartObjectId="nx_E4IZDeeCt" id="55">
                    <mxCell style="html=1;overflow=block;blockSpacing=1;whiteSpace=wrap;rhombus;whiteSpace=wrap;fontSize=13;fontColor=#333333;spacing=3;strokeColor=#5e5e5e;strokeOpacity=100;rounded=1;absoluteArcSize=1;arcSize=7;strokeWidth=2;fillColor=#FFFFFF;" parent="1" vertex="1">
                        <mxGeometry x="812.5" y="435" width="65" height="49" as="geometry"/>
                    </mxCell>
                </UserObject>
                <UserObject label="Work in" lucidchartObjectId="iy_E0iWSPG02" id="59">
                    <mxCell style="html=1;overflow=block;blockSpacing=1;whiteSpace=wrap;rhombus;whiteSpace=wrap;fontSize=13;fontColor=#333333;spacing=3;strokeColor=#5E5E5E;rounded=1;absoluteArcSize=1;arcSize=7;strokeWidth=2;fillColor=#FFFFFF;" parent="1" vertex="1">
                        <mxGeometry x="800" y="312" width="90" height="65" as="geometry"/>
                    </mxCell>
                </UserObject>
                <mxCell id="67" style="edgeStyle=orthogonalEdgeStyle;rounded=0;orthogonalLoop=1;jettySize=auto;html=1;strokeColor=#FFFFFF;fillColor=#FFFFFF;" parent="1" source="61" target="32" edge="1">
                    <mxGeometry relative="1" as="geometry"/>
                </mxCell>
                <UserObject label="b_id" lucidchartObjectId="Qz_EE7G.KiWP" id="61">
                    <mxCell style="html=1;overflow=block;blockSpacing=1;whiteSpace=wrap;rounded=1;arcSize=50;whiteSpace=wrap;fontSize=13;fontColor=#333333;fontStyle=4;spacing=3;strokeColor=#5e5e5e;strokeOpacity=100;fillOpacity=100;fillColor=#ffc374;strokeWidth=2;" parent="1" vertex="1">
                        <mxGeometry x="670" y="377" width="79" height="26" as="geometry"/>
                    </mxCell>
                </UserObject>
                <mxCell id="121" style="edgeStyle=orthogonalEdgeStyle;rounded=0;orthogonalLoop=1;jettySize=auto;html=1;entryX=0.4;entryY=0.042;entryDx=0;entryDy=0;entryPerimeter=0;" parent="1" source="63" target="33" edge="1">
                    <mxGeometry relative="1" as="geometry"/>
                </mxCell>
                <UserObject label="r_id" lucidchartObjectId="Qz_EE7G.KiWP" id="63">
                    <mxCell style="html=1;overflow=block;blockSpacing=1;whiteSpace=wrap;rounded=1;arcSize=50;whiteSpace=wrap;fontSize=13;fontColor=#333333;fontStyle=4;spacing=3;strokeColor=#5e5e5e;strokeOpacity=100;fillOpacity=100;fillColor=#ffc374;strokeWidth=2;" parent="1" vertex="1">
                        <mxGeometry x="969" y="312" width="79" height="22" as="geometry"/>
                    </mxCell>
                </UserObject>
                <mxCell id="122" style="edgeStyle=orthogonalEdgeStyle;rounded=0;orthogonalLoop=1;jettySize=auto;html=1;entryX=1;entryY=0.5;entryDx=0;entryDy=0;exitX=0;exitY=0.5;exitDx=0;exitDy=0;" parent="1" source="223" target="33" edge="1">
                    <mxGeometry relative="1" as="geometry">
                        <mxPoint x="1060" y="356" as="sourcePoint"/>
                    </mxGeometry>
                </mxCell>
                <mxCell id="76" value="" style="edgeStyle=entityRelationEdgeStyle;fontSize=12;html=1;endArrow=ERone;endFill=1;strokeColor=#FFFFFF;fillColor=#FFFFFF;exitX=1;exitY=0.5;exitDx=0;exitDy=0;entryX=0;entryY=0.5;entryDx=0;entryDy=0;" parent="1" source="3" target="45" edge="1">
                    <mxGeometry width="100" height="100" relative="1" as="geometry">
                        <mxPoint x="336" y="554" as="sourcePoint"/>
                        <mxPoint x="436" y="454" as="targetPoint"/>
                    </mxGeometry>
                </mxCell>
                <mxCell id="152" value="tp" style="edgeLabel;html=1;align=center;verticalAlign=middle;resizable=0;points=[];" parent="76" vertex="1" connectable="0">
                    <mxGeometry x="-0.0391" y="1" relative="1" as="geometry">
                        <mxPoint as="offset"/>
                    </mxGeometry>
                </mxCell>
                <mxCell id="77" value="" style="edgeStyle=entityRelationEdgeStyle;fontSize=12;html=1;endArrow=ERone;endFill=1;strokeColor=#FFFFFF;fillColor=#FFFFFF;exitX=0;exitY=0.5;exitDx=0;exitDy=0;entryX=1;entryY=0.5;entryDx=0;entryDy=0;" parent="1" source="32" target="45" edge="1">
                    <mxGeometry width="100" height="100" relative="1" as="geometry">
                        <mxPoint x="450" y="591" as="sourcePoint"/>
                        <mxPoint x="680" y="591" as="targetPoint"/>
                    </mxGeometry>
                </mxCell>
                <mxCell id="153" value="tp" style="edgeLabel;html=1;align=center;verticalAlign=middle;resizable=0;points=[];" parent="77" vertex="1" connectable="0">
                    <mxGeometry x="0.081" relative="1" as="geometry">
                        <mxPoint as="offset"/>
                    </mxGeometry>
                </mxCell>
                <mxCell id="82" style="edgeStyle=orthogonalEdgeStyle;rounded=0;orthogonalLoop=1;jettySize=auto;html=1;entryX=0.75;entryY=0;entryDx=0;entryDy=0;strokeColor=#FFFFFF;fillColor=#FFFFFF;" parent="1" source="81" target="4" edge="1">
                    <mxGeometry relative="1" as="geometry"/>
                </mxCell>
                <UserObject label="nur_age" lucidchartObjectId="hN-E4G3-MLpm" id="81">
                    <mxCell style="html=1;overflow=block;blockSpacing=1;whiteSpace=wrap;rounded=1;arcSize=50;whiteSpace=wrap;fontSize=13;fontColor=#333333;spacing=3;strokeColor=#5e5e5e;strokeOpacity=100;fillOpacity=100;fillColor=#a3d977;strokeWidth=2;" parent="1" vertex="1">
                        <mxGeometry x="920" y="109" width="79" height="22" as="geometry"/>
                    </mxCell>
                </UserObject>
                <mxCell id="99" style="edgeStyle=orthogonalEdgeStyle;rounded=0;orthogonalLoop=1;jettySize=auto;html=1;entryX=0.25;entryY=0;entryDx=0;entryDy=0;" parent="1" source="98" target="4" edge="1">
                    <mxGeometry relative="1" as="geometry"/>
                </mxCell>
                <UserObject label="nur_salary" lucidchartObjectId="Gn_EeRe1m0DJ" id="98">
                    <mxCell style="html=1;overflow=block;blockSpacing=1;whiteSpace=wrap;rounded=1;arcSize=50;whiteSpace=wrap;fontSize=13;fontColor=#333333;spacing=3;strokeColor=#5e5e5e;strokeOpacity=100;fillOpacity=100;fillColor=#b2d6ef;strokeWidth=2;" parent="1" vertex="1">
                        <mxGeometry x="699.5" y="109" width="78" height="22" as="geometry"/>
                    </mxCell>
                </UserObject>
                <mxCell id="101" style="edgeStyle=orthogonalEdgeStyle;rounded=0;orthogonalLoop=1;jettySize=auto;html=1;entryX=0.901;entryY=-0.042;entryDx=0;entryDy=0;entryPerimeter=0;" parent="1" source="100" target="5" edge="1">
                    <mxGeometry relative="1" as="geometry"/>
                </mxCell>
                <UserObject label="doc_salary" lucidchartObjectId="eN-EjGiqYkRQ" id="100">
                    <mxCell style="html=1;overflow=block;blockSpacing=1;whiteSpace=wrap;rounded=1;arcSize=50;whiteSpace=wrap;fontSize=13;fontColor=#333333;spacing=3;strokeColor=#5e5e5e;strokeOpacity=100;fillOpacity=100;fillColor=#b2d6ef;strokeWidth=2;" parent="1" vertex="1">
                        <mxGeometry x="425" y="160" width="79" height="22" as="geometry"/>
                    </mxCell>
                </UserObject>
                <UserObject label="Bill" lucidchartObjectId="oo_Eic0omiU4" id="103">
                    <mxCell style="html=1;overflow=block;blockSpacing=1;whiteSpace=wrap;;whiteSpace=wrap;fontSize=13;fontColor=#333333;spacing=7;strokeColor=#5e5e5e;strokeOpacity=100;fillOpacity=100;rounded=1;absoluteArcSize=1;arcSize=7;fillColor=#cccccc;strokeWidth=2;" parent="1" vertex="1">
                        <mxGeometry x="552" y="591" width="79" height="43" as="geometry"/>
                    </mxCell>
                </UserObject>
                <UserObject label="Pays" lucidchartObjectId="nx_E4IZDeeCt" id="104">
                    <mxCell style="html=1;overflow=block;blockSpacing=1;whiteSpace=wrap;rhombus;whiteSpace=wrap;fontSize=13;fontColor=#333333;spacing=3;strokeColor=#5e5e5e;strokeOpacity=100;rounded=1;absoluteArcSize=1;arcSize=7;strokeWidth=2;fillColor=#FFFFFF;" parent="1" vertex="1">
                        <mxGeometry x="425" y="588" width="65" height="49" as="geometry"/>
                    </mxCell>
                </UserObject>
                <mxCell id="106" value="" style="edgeStyle=entityRelationEdgeStyle;fontSize=12;html=1;endArrow=ERone;endFill=1;strokeColor=#FFFFFF;fillColor=#FFFFFF;entryX=0;entryY=0.5;entryDx=0;entryDy=0;exitX=1;exitY=1;exitDx=0;exitDy=0;" parent="1" source="3" target="104" edge="1">
                    <mxGeometry width="100" height="100" relative="1" as="geometry">
                        <mxPoint x="370" y="543" as="sourcePoint"/>
                        <mxPoint x="444" y="689.5" as="targetPoint"/>
                    </mxGeometry>
                </mxCell>
                <mxCell id="154" value="tp" style="edgeLabel;html=1;align=center;verticalAlign=middle;resizable=0;points=[];" parent="106" vertex="1" connectable="0">
                    <mxGeometry x="-0.1491" relative="1" as="geometry">
                        <mxPoint as="offset"/>
                    </mxGeometry>
                </mxCell>
                <mxCell id="107" value="" style="edgeStyle=entityRelationEdgeStyle;fontSize=12;html=1;endArrow=ERone;endFill=1;strokeColor=#FFFFFF;fillColor=#FFFFFF;entryX=1;entryY=0.5;entryDx=0;entryDy=0;exitX=0;exitY=0.5;exitDx=0;exitDy=0;" parent="1" source="103" target="104" edge="1">
                    <mxGeometry width="100" height="100" relative="1" as="geometry">
                        <mxPoint x="640" y="620" as="sourcePoint"/>
                        <mxPoint x="664" y="748.5" as="targetPoint"/>
                    </mxGeometry>
                </mxCell>
                <mxCell id="155" value="tp" style="edgeLabel;html=1;align=center;verticalAlign=middle;resizable=0;points=[];" parent="107" vertex="1" connectable="0">
                    <mxGeometry x="0.071" relative="1" as="geometry">
                        <mxPoint as="offset"/>
                    </mxGeometry>
                </mxCell>
                <mxCell id="117" style="edgeStyle=orthogonalEdgeStyle;rounded=0;orthogonalLoop=1;jettySize=auto;html=1;entryX=0.25;entryY=1;entryDx=0;entryDy=0;" parent="1" source="110" target="103" edge="1">
                    <mxGeometry relative="1" as="geometry"/>
                </mxCell>
                <UserObject label="bill_id" lucidchartObjectId="Qz_EE7G.KiWP" id="110">
                    <mxCell style="html=1;overflow=block;blockSpacing=1;whiteSpace=wrap;rounded=1;arcSize=50;whiteSpace=wrap;fontSize=13;fontColor=#333333;fontStyle=4;spacing=3;strokeColor=#5e5e5e;strokeOpacity=100;fillOpacity=100;fillColor=#ffc374;strokeWidth=2;" parent="1" vertex="1">
                        <mxGeometry x="462" y="648" width="79" height="22" as="geometry"/>
                    </mxCell>
                </UserObject>
                <mxCell id="120" style="edgeStyle=orthogonalEdgeStyle;rounded=0;orthogonalLoop=1;jettySize=auto;html=1;entryX=0.5;entryY=1;entryDx=0;entryDy=0;" parent="1" source="114" target="103" edge="1">
                    <mxGeometry relative="1" as="geometry">
                        <Array as="points">
                            <mxPoint x="640" y="650"/>
                            <mxPoint x="592" y="650"/>
                        </Array>
                    </mxGeometry>
                </mxCell>
                <UserObject label="price" lucidchartObjectId="Gn_EeRe1m0DJ" id="114">
                    <mxCell style="html=1;overflow=block;blockSpacing=1;whiteSpace=wrap;rounded=1;arcSize=50;whiteSpace=wrap;fontSize=13;fontColor=#333333;spacing=3;strokeColor=#5e5e5e;strokeOpacity=100;fillOpacity=100;fillColor=#b2d6ef;strokeWidth=2;" parent="1" vertex="1">
                        <mxGeometry x="560" y="670" width="79" height="22" as="geometry"/>
                    </mxCell>
                </UserObject>
                <UserObject label="Medicine" lucidchartObjectId="oo_Eic0omiU4" id="123">
                    <mxCell style="html=1;overflow=block;blockSpacing=1;whiteSpace=wrap;;whiteSpace=wrap;fontSize=13;fontColor=#333333;spacing=7;strokeColor=#5e5e5e;strokeOpacity=100;fillOpacity=100;rounded=1;absoluteArcSize=1;arcSize=7;fillColor=#cccccc;strokeWidth=2;" parent="1" vertex="1">
                        <mxGeometry x="850" y="594" width="79" height="43" as="geometry"/>
                    </mxCell>
                </UserObject>
                <UserObject label="Have" lucidchartObjectId="nx_E4IZDeeCt" id="124">
                    <mxCell style="html=1;overflow=block;blockSpacing=1;whiteSpace=wrap;rhombus;whiteSpace=wrap;fontSize=13;fontColor=#333333;spacing=3;strokeColor=#5e5e5e;strokeOpacity=100;rounded=1;absoluteArcSize=1;arcSize=7;strokeWidth=2;fillColor=#FFFFFF;" parent="1" vertex="1">
                        <mxGeometry x="720" y="591" width="65" height="49" as="geometry"/>
                    </mxCell>
                </UserObject>
                <mxCell id="215" style="edgeStyle=orthogonalEdgeStyle;rounded=0;orthogonalLoop=1;jettySize=auto;html=1;entryX=0.5;entryY=0;entryDx=0;entryDy=0;" parent="1" source="131" target="124" edge="1">
                    <mxGeometry relative="1" as="geometry"/>
                </mxCell>
                <UserObject label="m_quantity" lucidchartObjectId="Gn_EeRe1m0DJ" id="131">
                    <mxCell style="html=1;overflow=block;blockSpacing=1;whiteSpace=wrap;rounded=1;arcSize=50;whiteSpace=wrap;fontSize=13;fontColor=#333333;spacing=3;strokeColor=#5e5e5e;strokeOpacity=100;fillOpacity=100;fillColor=#b2d6ef;strokeWidth=2;" parent="1" vertex="1">
                        <mxGeometry x="713" y="548" width="79" height="22" as="geometry"/>
                    </mxCell>
                </UserObject>
                <mxCell id="133" style="edgeStyle=orthogonalEdgeStyle;rounded=0;orthogonalLoop=1;jettySize=auto;html=1;" parent="1" source="132" target="123" edge="1">
                    <mxGeometry relative="1" as="geometry"/>
                </mxCell>
                <UserObject label="m_name" lucidchartObjectId="Qz_EE7G.KiWP" id="132">
                    <mxCell style="html=1;overflow=block;blockSpacing=1;whiteSpace=wrap;rounded=1;arcSize=50;whiteSpace=wrap;fontSize=13;fontColor=#333333;fontStyle=4;spacing=3;strokeColor=#5e5e5e;strokeOpacity=100;fillOpacity=100;fillColor=#ffc374;strokeWidth=2;" parent="1" vertex="1">
                        <mxGeometry x="940" y="537.5" width="79" height="22" as="geometry"/>
                    </mxCell>
                </UserObject>
                <mxCell id="136" style="edgeStyle=orthogonalEdgeStyle;rounded=0;orthogonalLoop=1;jettySize=auto;html=1;entryX=0.5;entryY=1;entryDx=0;entryDy=0;" parent="1" source="135" target="123" edge="1">
                    <mxGeometry relative="1" as="geometry"/>
                </mxCell>
                <UserObject label="m_values" lucidchartObjectId="Gn_EeRe1m0DJ" id="135">
                    <mxCell style="html=1;overflow=block;blockSpacing=1;whiteSpace=wrap;rounded=1;arcSize=50;whiteSpace=wrap;fontSize=13;fontColor=#333333;spacing=3;strokeColor=#5e5e5e;strokeOpacity=100;fillOpacity=100;fillColor=#b2d6ef;strokeWidth=2;" parent="1" vertex="1">
                        <mxGeometry x="970" y="648" width="79" height="22" as="geometry"/>
                    </mxCell>
                </UserObject>
                <mxCell id="142" value="&lt;font style=&quot;font-size: 18px&quot;&gt;tp : total participation&lt;/font&gt;" style="text;html=1;align=center;verticalAlign=middle;resizable=0;points=[];autosize=1;" parent="1" vertex="1">
                    <mxGeometry x="40" y="321" width="180" height="20" as="geometry"/>
                </mxCell>
                <mxCell id="144" value="&lt;font style=&quot;font-size: 18px&quot;&gt;pp : partial participation&lt;/font&gt;" style="text;html=1;align=center;verticalAlign=middle;resizable=0;points=[];autosize=1;" parent="1" vertex="1">
                    <mxGeometry x="40" y="345" width="200" height="20" as="geometry"/>
                </mxCell>
                <mxCell id="173" value="" style="edgeStyle=entityRelationEdgeStyle;fontSize=12;html=1;endArrow=ERone;endFill=1;" parent="1" edge="1">
                    <mxGeometry width="100" height="100" relative="1" as="geometry">
                        <mxPoint x="480" y="840" as="sourcePoint"/>
                        <mxPoint x="580" y="740" as="targetPoint"/>
                    </mxGeometry>
                </mxCell>
                <mxCell id="174" value="one" style="text;html=1;align=center;verticalAlign=middle;resizable=0;points=[];autosize=1;" parent="1" vertex="1">
                    <mxGeometry x="490" y="860" width="40" height="20" as="geometry"/>
                </mxCell>
                <mxCell id="175" value="" style="edgeStyle=entityRelationEdgeStyle;fontSize=12;html=1;endArrow=ERmany;" parent="1" edge="1">
                    <mxGeometry width="100" height="100" relative="1" as="geometry">
                        <mxPoint x="654" y="860" as="sourcePoint"/>
                        <mxPoint x="754" y="760" as="targetPoint"/>
                    </mxGeometry>
                </mxCell>
                <mxCell id="176" value="many" style="text;html=1;align=center;verticalAlign=middle;resizable=0;points=[];autosize=1;" parent="1" vertex="1">
                    <mxGeometry x="679" y="860" width="50" height="20" as="geometry"/>
                </mxCell>
                <mxCell id="177" value="" style="edgeStyle=entityRelationEdgeStyle;fontSize=12;html=1;endArrow=ERmany;entryX=0;entryY=0.5;entryDx=0;entryDy=0;exitX=0.916;exitY=0.023;exitDx=0;exitDy=0;exitPerimeter=0;" parent="1" source="3" target="43" edge="1">
                    <mxGeometry width="100" height="100" relative="1" as="geometry">
                        <mxPoint x="236" y="500" as="sourcePoint"/>
                        <mxPoint x="336" y="400" as="targetPoint"/>
                    </mxGeometry>
                </mxCell>
                <mxCell id="178" value="tp" style="edgeLabel;html=1;align=center;verticalAlign=middle;resizable=0;points=[];" parent="177" vertex="1" connectable="0">
                    <mxGeometry x="-0.0334" y="-2" relative="1" as="geometry">
                        <mxPoint as="offset"/>
                    </mxGeometry>
                </mxCell>
                <mxCell id="180" value="" style="edgeStyle=entityRelationEdgeStyle;fontSize=12;html=1;endArrow=ERmany;exitX=1;exitY=0.75;exitDx=0;exitDy=0;entryX=1;entryY=0.5;entryDx=0;entryDy=0;" parent="1" source="5" target="43" edge="1">
                    <mxGeometry width="100" height="100" relative="1" as="geometry">
                        <mxPoint x="414.5" y="366" as="sourcePoint"/>
                        <mxPoint x="405" y="373" as="targetPoint"/>
                    </mxGeometry>
                </mxCell>
                <mxCell id="181" value="pp" style="edgeLabel;html=1;align=center;verticalAlign=middle;resizable=0;points=[];" parent="180" vertex="1" connectable="0">
                    <mxGeometry x="-0.1098" y="-3" relative="1" as="geometry">
                        <mxPoint as="offset"/>
                    </mxGeometry>
                </mxCell>
                <mxCell id="185" value="" style="edgeStyle=entityRelationEdgeStyle;fontSize=12;html=1;endArrow=ERmany;entryX=0;entryY=0.5;entryDx=0;entryDy=0;exitX=1;exitY=0.25;exitDx=0;exitDy=0;" parent="1" source="3" target="51" edge="1">
                    <mxGeometry width="100" height="100" relative="1" as="geometry">
                        <mxPoint x="394" y="448" as="sourcePoint"/>
                        <mxPoint x="494" y="348" as="targetPoint"/>
                    </mxGeometry>
                </mxCell>
                <mxCell id="186" value="tp" style="edgeLabel;html=1;align=center;verticalAlign=middle;resizable=0;points=[];" parent="185" vertex="1" connectable="0">
                    <mxGeometry x="-0.0079" relative="1" as="geometry">
                        <mxPoint as="offset"/>
                    </mxGeometry>
                </mxCell>
                <mxCell id="187" value="" style="edgeStyle=entityRelationEdgeStyle;fontSize=12;html=1;endArrow=ERmany;entryX=1;entryY=0.5;entryDx=0;entryDy=0;exitX=0;exitY=0.5;exitDx=0;exitDy=0;" parent="1" source="4" target="51" edge="1">
                    <mxGeometry width="100" height="100" relative="1" as="geometry">
                        <mxPoint x="589.5" y="408" as="sourcePoint"/>
                        <mxPoint x="689.5" y="308" as="targetPoint"/>
                    </mxGeometry>
                </mxCell>
                <mxCell id="188" value="tp" style="edgeLabel;html=1;align=center;verticalAlign=middle;resizable=0;points=[];" parent="187" vertex="1" connectable="0">
                    <mxGeometry x="-0.0689" relative="1" as="geometry">
                        <mxPoint as="offset"/>
                    </mxGeometry>
                </mxCell>
                <mxCell id="193" value="" style="edgeStyle=entityRelationEdgeStyle;fontSize=12;html=1;endArrow=ERmany;entryX=0;entryY=0.5;entryDx=0;entryDy=0;exitX=1;exitY=0.5;exitDx=0;exitDy=0;" parent="1" source="103" target="124" edge="1">
                    <mxGeometry width="100" height="100" relative="1" as="geometry">
                        <mxPoint x="610" y="676" as="sourcePoint"/>
                        <mxPoint x="710" y="576" as="targetPoint"/>
                    </mxGeometry>
                </mxCell>
                <mxCell id="194" value="pp" style="edgeLabel;html=1;align=center;verticalAlign=middle;resizable=0;points=[];" parent="193" vertex="1" connectable="0">
                    <mxGeometry x="-0.0513" relative="1" as="geometry">
                        <mxPoint as="offset"/>
                    </mxGeometry>
                </mxCell>
                <mxCell id="195" value="" style="edgeStyle=entityRelationEdgeStyle;fontSize=12;html=1;endArrow=ERmany;exitX=0;exitY=0.25;exitDx=0;exitDy=0;" parent="1" source="33" target="59" edge="1">
                    <mxGeometry width="100" height="100" relative="1" as="geometry">
                        <mxPoint x="820" y="830" as="sourcePoint"/>
                        <mxPoint x="920" y="730" as="targetPoint"/>
                    </mxGeometry>
                </mxCell>
                <mxCell id="196" value="pp" style="edgeLabel;html=1;align=center;verticalAlign=middle;resizable=0;points=[];" parent="195" vertex="1" connectable="0">
                    <mxGeometry x="0.0573" y="-1" relative="1" as="geometry">
                        <mxPoint as="offset"/>
                    </mxGeometry>
                </mxCell>
                <mxCell id="197" value="" style="edgeStyle=entityRelationEdgeStyle;fontSize=12;html=1;endArrow=ERmany;entryX=1;entryY=0.5;entryDx=0;entryDy=0;exitX=0;exitY=0.25;exitDx=0;exitDy=0;" parent="1" source="4" target="48" edge="1">
                    <mxGeometry width="100" height="100" relative="1" as="geometry">
                        <mxPoint x="529" y="250" as="sourcePoint"/>
                        <mxPoint x="665" y="238.75" as="targetPoint"/>
                    </mxGeometry>
                </mxCell>
                <mxCell id="198" value="pp" style="edgeLabel;html=1;align=center;verticalAlign=middle;resizable=0;points=[];" parent="197" vertex="1" connectable="0">
                    <mxGeometry x="-0.059" y="-1" relative="1" as="geometry">
                        <mxPoint as="offset"/>
                    </mxGeometry>
                </mxCell>
                <mxCell id="200" value="" style="edgeStyle=entityRelationEdgeStyle;fontSize=12;html=1;endArrow=ERone;endFill=1;strokeColor=#FFFFFF;fillColor=#FFFFFF;entryX=0;entryY=0.5;entryDx=0;entryDy=0;exitX=1;exitY=0.5;exitDx=0;exitDy=0;" parent="1" source="5" target="48" edge="1">
                    <mxGeometry width="100" height="100" relative="1" as="geometry">
                        <mxPoint x="747.5" y="160" as="sourcePoint"/>
                        <mxPoint x="589.5" y="156.5" as="targetPoint"/>
                    </mxGeometry>
                </mxCell>
                <mxCell id="201" value="pp" style="edgeLabel;html=1;align=center;verticalAlign=middle;resizable=0;points=[];" parent="200" vertex="1" connectable="0">
                    <mxGeometry x="-0.0359" y="1" relative="1" as="geometry">
                        <mxPoint as="offset"/>
                    </mxGeometry>
                </mxCell>
                <mxCell id="204" value="" style="edgeStyle=entityRelationEdgeStyle;fontSize=12;html=1;endArrow=ERmany;exitX=0;exitY=1;exitDx=0;exitDy=0;entryX=0;entryY=0.5;entryDx=0;entryDy=0;" parent="1" source="4" target="59" edge="1">
                    <mxGeometry width="100" height="100" relative="1" as="geometry">
                        <mxPoint x="800" y="365" as="sourcePoint"/>
                        <mxPoint x="740" y="307.25" as="targetPoint"/>
                    </mxGeometry>
                </mxCell>
                <mxCell id="205" value="pp" style="edgeLabel;html=1;align=center;verticalAlign=middle;resizable=0;points=[];" parent="204" vertex="1" connectable="0">
                    <mxGeometry x="0.0573" y="-1" relative="1" as="geometry">
                        <mxPoint as="offset"/>
                    </mxGeometry>
                </mxCell>
                <mxCell id="206" value="" style="edgeStyle=entityRelationEdgeStyle;fontSize=12;html=1;endArrow=ERmany;entryX=0;entryY=0.5;entryDx=0;entryDy=0;exitX=1;exitY=0.5;exitDx=0;exitDy=0;" parent="1" source="32" target="55" edge="1">
                    <mxGeometry width="100" height="100" relative="1" as="geometry">
                        <mxPoint x="887.5" y="448" as="sourcePoint"/>
                        <mxPoint x="815" y="494.5" as="targetPoint"/>
                    </mxGeometry>
                </mxCell>
                <mxCell id="207" value="tp" style="edgeLabel;html=1;align=center;verticalAlign=middle;resizable=0;points=[];" parent="206" vertex="1" connectable="0">
                    <mxGeometry x="-0.0018" y="-1" relative="1" as="geometry">
                        <mxPoint as="offset"/>
                    </mxGeometry>
                </mxCell>
                <mxCell id="208" value="" style="edgeStyle=entityRelationEdgeStyle;fontSize=12;html=1;endArrow=ERone;endFill=1;strokeColor=#FFFFFF;fillColor=#FFFFFF;entryX=1;entryY=0.5;entryDx=0;entryDy=0;exitX=0;exitY=0.75;exitDx=0;exitDy=0;" parent="1" source="33" target="55" edge="1">
                    <mxGeometry width="100" height="100" relative="1" as="geometry">
                        <mxPoint x="890" y="484" as="sourcePoint"/>
                        <mxPoint x="953.5" y="484" as="targetPoint"/>
                    </mxGeometry>
                </mxCell>
                <mxCell id="209" value="tp" style="edgeLabel;html=1;align=center;verticalAlign=middle;resizable=0;points=[];" parent="208" vertex="1" connectable="0">
                    <mxGeometry x="0.4746" y="4" relative="1" as="geometry">
                        <mxPoint as="offset"/>
                    </mxGeometry>
                </mxCell>
                <mxCell id="210" value="" style="edgeStyle=entityRelationEdgeStyle;fontSize=12;html=1;endArrow=ERmany;entryX=1;entryY=0.5;entryDx=0;entryDy=0;exitX=0;exitY=0.5;exitDx=0;exitDy=0;" parent="1" source="123" target="124" edge="1">
                    <mxGeometry width="100" height="100" relative="1" as="geometry">
                        <mxPoint x="696" y="657.5" as="sourcePoint"/>
                        <mxPoint x="785" y="660.5" as="targetPoint"/>
                    </mxGeometry>
                </mxCell>
                <mxCell id="211" value="pp" style="edgeLabel;html=1;align=center;verticalAlign=middle;resizable=0;points=[];" parent="210" vertex="1" connectable="0">
                    <mxGeometry x="-0.0513" relative="1" as="geometry">
                        <mxPoint as="offset"/>
                    </mxGeometry>
                </mxCell>
                <mxCell id="214" style="edgeStyle=orthogonalEdgeStyle;rounded=0;orthogonalLoop=1;jettySize=auto;html=1;entryX=0;entryY=0;entryDx=0;entryDy=0;" parent="1" source="212" target="43" edge="1">
                    <mxGeometry relative="1" as="geometry"/>
                </mxCell>
                <UserObject label="service_times" lucidchartObjectId="eN-EjGiqYkRQ" id="212">
                    <mxCell style="html=1;overflow=block;blockSpacing=1;whiteSpace=wrap;rounded=1;arcSize=50;whiteSpace=wrap;fontSize=13;fontColor=#333333;spacing=3;strokeColor=#5e5e5e;strokeOpacity=100;fillOpacity=100;fillColor=#b2d6ef;strokeWidth=2;" parent="1" vertex="1">
                        <mxGeometry x="224" y="319" width="100" height="22" as="geometry"/>
                    </mxCell>
                </UserObject>
                <mxCell id="217" style="edgeStyle=orthogonalEdgeStyle;rounded=0;orthogonalLoop=1;jettySize=auto;html=1;entryX=1;entryY=0.75;entryDx=0;entryDy=0;" parent="1" source="216" target="103" edge="1">
                    <mxGeometry relative="1" as="geometry"/>
                </mxCell>
                <UserObject label="total_price" lucidchartObjectId="Jm_Emg_fmuuJ" id="216">
                    <mxCell style="html=1;overflow=block;blockSpacing=1;whiteSpace=wrap;rounded=1;arcSize=50;whiteSpace=wrap;fontSize=13;fontColor=#333333;spacing=3;strokeColor=#5e5e5e;strokeOpacity=100;fillOpacity=100;fillColor=#a3d977;strokeWidth=2;" parent="1" vertex="1">
                        <mxGeometry x="680" y="662" width="79" height="22" as="geometry"/>
                    </mxCell>
                </UserObject>
                <mxCell id="219" style="edgeStyle=orthogonalEdgeStyle;rounded=0;orthogonalLoop=1;jettySize=auto;html=1;entryX=0.5;entryY=0;entryDx=0;entryDy=0;" parent="1" source="218" target="51" edge="1">
                    <mxGeometry relative="1" as="geometry"/>
                </mxCell>
                <UserObject label="service_times" lucidchartObjectId="eN-EjGiqYkRQ" id="218">
                    <mxCell style="html=1;overflow=block;blockSpacing=1;whiteSpace=wrap;rounded=1;arcSize=50;whiteSpace=wrap;fontSize=13;fontColor=#333333;spacing=3;strokeColor=#5e5e5e;strokeOpacity=100;fillOpacity=100;fillColor=#b2d6ef;strokeWidth=2;" parent="1" vertex="1">
                        <mxGeometry x="524" y="266" width="100" height="22" as="geometry"/>
                    </mxCell>
                </UserObject>
                <mxCell id="222" style="edgeStyle=orthogonalEdgeStyle;rounded=0;orthogonalLoop=1;jettySize=auto;html=1;entryX=0.5;entryY=0;entryDx=0;entryDy=0;exitX=0;exitY=0.5;exitDx=0;exitDy=0;" parent="1" source="220" target="59" edge="1">
                    <mxGeometry relative="1" as="geometry"/>
                </mxCell>
                <UserObject label="work_times" lucidchartObjectId="eN-EjGiqYkRQ" id="220">
                    <mxCell style="html=1;overflow=block;blockSpacing=1;whiteSpace=wrap;rounded=1;arcSize=50;whiteSpace=wrap;fontSize=13;fontColor=#333333;spacing=3;strokeColor=#5e5e5e;strokeOpacity=100;fillOpacity=100;fillColor=#A3D977;strokeWidth=2;" parent="1" vertex="1">
                        <mxGeometry x="890" y="266" width="100" height="22" as="geometry"/>
                    </mxCell>
                </UserObject>
                <UserObject label="r_name" lucidchartObjectId="Gn_EeRe1m0DJ" id="223">
                    <mxCell style="html=1;overflow=block;blockSpacing=1;whiteSpace=wrap;rounded=1;arcSize=50;whiteSpace=wrap;fontSize=13;fontColor=#333333;spacing=3;strokeColor=#5e5e5e;strokeOpacity=100;fillOpacity=100;fillColor=#b2d6ef;strokeWidth=2;" vertex="1" parent="1">
                        <mxGeometry x="1070" y="345" width="80" height="22" as="geometry"/>
                    </mxCell>
                </UserObject>
            </root>
        </mxGraphModel>
    </diagram>
</mxfile>